<?xml version="1.0" encoding="utf-8"?>
<!-- Generator: Adobe Illustrator 16.0.0, SVG Export Plug-In . SVG Version: 6.00 Build 0)  -->
<!DOCTYPE svg PUBLIC "-//W3C//DTD SVG 1.1//EN" "http://www.w3.org/Graphics/SVG/1.1/DTD/svg11.dtd">
<svg version="1.1" id="Ebene_1" xmlns="http://www.w3.org/2000/svg" xmlns:xlink="http://www.w3.org/1999/xlink" x="0px" y="0px"
	 width="132px" height="132px" viewBox="0 0 132 132" enable-background="new 0 0 132 132" xml:space="preserve">
<rect fill="none" width="132" height="132"/>
<path fill="#3D652A" d="M66,13.2L66,13.2c2.552,0,4.62,2.955,4.62,6.6V33c0,3.645-2.068,6.6-4.62,6.6l0,0
	c-2.552,0-4.62-2.955-4.62-6.6V19.8C61.38,16.155,63.448,13.2,66,13.2z">
<animate  fill="remove" restart="always" calcMode="linear" additive="replace" accumulate="none" repeatCount="indefinite" begin="0s" dur="1s" to="0" from="1" attributeName="opacity">
		</animate>
</path>
<path fill="#3D652A" d="M92.4,20.274L92.4,20.274c2.209,1.276,2.523,4.869,0.701,8.026l-6.601,11.432
	c-1.822,3.156-5.091,4.681-7.301,3.405l0,0c-2.21-1.275-2.524-4.869-0.701-8.025L85.1,23.68C86.922,20.523,90.19,18.998,92.4,20.274
	z">
<animate  fill="remove" restart="always" calcMode="linear" additive="replace" accumulate="none" repeatCount="indefinite" begin="0.08333333333333333s" dur="1s" to="0" from="1" attributeName="opacity">
		</animate>
</path>
<path fill="#3D652A" d="M111.727,39.6L111.727,39.6c1.275,2.209-0.25,5.479-3.406,7.301l-11.432,6.6
	c-3.156,1.823-6.75,1.509-8.025-0.701l0,0c-1.275-2.209,0.249-5.479,3.406-7.301l11.431-6.6
	C106.857,37.076,110.45,37.39,111.727,39.6z">
<animate  fill="remove" restart="always" calcMode="linear" additive="replace" accumulate="none" repeatCount="indefinite" begin="0.16666666666666666s" dur="1s" to="0" from="1" attributeName="opacity">
		</animate>
</path>
<path fill="#3D652A" d="M118.8,66L118.8,66c0,2.552-2.954,4.62-6.6,4.62H99c-3.645,0-6.6-2.068-6.6-4.62l0,0
	c0-2.552,2.955-4.62,6.6-4.62h13.2C115.846,61.38,118.8,63.448,118.8,66z">
<animate  fill="remove" restart="always" calcMode="linear" additive="replace" accumulate="none" repeatCount="indefinite" begin="0.25s" dur="1s" to="0" from="1" attributeName="opacity">
		</animate>
</path>
<path fill="#3D652A" d="M111.727,92.4L111.727,92.4c-1.276,2.209-4.869,2.523-8.026,0.701L92.27,86.501
	c-3.157-1.822-4.682-5.091-3.406-7.301l0,0c1.275-2.21,4.869-2.524,8.025-0.701L108.32,85.1
	C111.477,86.922,113.002,90.19,111.727,92.4z">
<animate  fill="remove" restart="always" calcMode="linear" additive="replace" accumulate="none" repeatCount="indefinite" begin="0.3333333333333333s" dur="1s" to="0" from="1" attributeName="opacity">
		</animate>
</path>
<path fill="#3D652A" d="M92.4,111.727L92.4,111.727c-2.21,1.275-5.479-0.25-7.301-3.406l-6.601-11.432
	c-1.823-3.156-1.509-6.75,0.701-8.025l0,0c2.21-1.275,5.479,0.249,7.301,3.405l6.601,11.432
	C94.924,106.857,94.609,110.45,92.4,111.727z">
<animate  fill="remove" restart="always" calcMode="linear" additive="replace" accumulate="none" repeatCount="indefinite" begin="0.4166666666666667s" dur="1s" to="0" from="1" attributeName="opacity">
		</animate>
</path>
<path fill="#3D652A" d="M66,118.8L66,118.8c-2.552,0-4.62-2.954-4.62-6.6V99c0-3.645,2.068-6.6,4.62-6.6l0,0
	c2.552,0,4.62,2.955,4.62,6.6v13.2C70.62,115.846,68.552,118.8,66,118.8z">
<animate  fill="remove" restart="always" calcMode="linear" additive="replace" accumulate="none" repeatCount="indefinite" begin="0.5s" dur="1s" to="0" from="1" attributeName="opacity">
		</animate>
</path>
<path fill="#3D652A" d="M39.6,111.727L39.6,111.727c-2.21-1.276-2.524-4.869-0.701-8.026l6.6-11.432
	c1.822-3.156,5.091-4.681,7.301-3.405l0,0c2.21,1.275,2.524,4.869,0.701,8.025l-6.6,11.432
	C45.079,111.477,41.81,113.002,39.6,111.727z">
<animate  fill="remove" restart="always" calcMode="linear" additive="replace" accumulate="none" repeatCount="indefinite" begin="0.5833333333333334s" dur="1s" to="0" from="1" attributeName="opacity">
		</animate>
</path>
<path fill="#3D652A" d="M20.274,92.4L20.274,92.4c-1.276-2.21,0.249-5.479,3.406-7.301l11.432-6.601
	c3.157-1.823,6.75-1.509,8.025,0.701l0,0c1.276,2.21-0.249,5.479-3.406,7.301L28.3,93.102C25.143,94.924,21.55,94.609,20.274,92.4z"
	>
<animate  fill="remove" restart="always" calcMode="linear" additive="replace" accumulate="none" repeatCount="indefinite" begin="0.6666666666666666s" dur="1s" to="0" from="1" attributeName="opacity">
		</animate>
</path>
<path fill="#3D652A" d="M13.2,66L13.2,66c0-2.552,2.955-4.62,6.6-4.62H33c3.645,0,6.6,2.068,6.6,4.62l0,0
	c0,2.552-2.955,4.62-6.6,4.62H19.8C16.155,70.62,13.2,68.552,13.2,66z">
<animate  fill="remove" restart="always" calcMode="linear" additive="replace" accumulate="none" repeatCount="indefinite" begin="0.75s" dur="1s" to="0" from="1" attributeName="opacity">
		</animate>
</path>
<path fill="#3D652A" d="M20.274,39.6L20.274,39.6c1.276-2.21,4.869-2.524,8.026-0.701l11.431,6.6
	c3.157,1.822,4.682,5.091,3.406,7.301l0,0c-1.275,2.21-4.869,2.524-8.025,0.701l-11.432-6.6C20.523,45.079,18.998,41.81,20.274,39.6
	z">
<animate  fill="remove" restart="always" calcMode="linear" additive="replace" accumulate="none" repeatCount="indefinite" begin="0.8333333333333334s" dur="1s" to="0" from="1" attributeName="opacity">
		</animate>
</path>
<path fill="#3D652A" d="M39.6,20.274L39.6,20.274c2.209-1.276,5.479,0.249,7.301,3.406l6.6,11.432
	c1.823,3.157,1.509,6.75-0.701,8.025l0,0c-2.209,1.276-5.479-0.249-7.301-3.405l-6.6-11.432C37.076,25.143,37.39,21.55,39.6,20.274z
	">
<animate  fill="remove" restart="always" calcMode="linear" additive="replace" accumulate="none" repeatCount="indefinite" begin="0.9166666666666666s" dur="1s" to="0" from="1" attributeName="opacity">
		</animate>
</path>
</svg>
